<svg width="29" height="29" viewBox="0 0 29 29" fill="none" xmlns="http://www.w3.org/2000/svg">
<path d="M15.1295 27.0329L15.1393 27.0278M15.1295 27.0329L15.7347 26.7012C15.5466 26.8076 15.3975 26.8895 15.2937 26.9455C15.2418 26.9736 15.2012 26.9952 15.1727 27.0102M15.1295 27.0329L15.1253 27.0351L15.1295 27.0329ZM15.1393 27.0278L15.1727 27.0102M15.1393 27.0278L15.127 27.0046L15.1271 27.0044L15.1393 27.0278ZM15.1727 27.0102L15.1312 26.931L15.1311 26.9315L15.1727 27.0102ZM14.7824 25.5154C14.8455 25.4804 14.9166 25.4406 14.9953 25.3961L14.7824 25.5154ZM14.7824 25.5154C14.5712 25.5066 14.4288 25.5066 14.2176 25.5154C14.1545 25.4804 14.0834 25.4406 14.0047 25.3961L14.7824 25.5154ZM13.8742 27.0258L13.8705 27.0329M13.8742 27.0258L13.8607 27.0278L13.8705 27.0329M13.8742 27.0258L13.8705 27.0329M13.8742 27.0258L13.8747 27.0351L13.8705 27.0329M16.478 24.5057C15.8647 24.8935 15.3536 25.1931 14.996 25.3957H14.004C13.6464 25.1931 13.1353 24.8935 12.522 24.5057L12.5219 24.5057C11.294 23.7294 9.6574 22.6006 8.02148 21.1904C4.7413 18.3625 1.5 14.4341 1.5 9.96875C1.5 5.9683 4.60892 3.3125 7.70312 3.3125C9.96531 3.3125 11.9828 4.48079 13.2684 6.32992L14.5 8.10138L15.7316 6.32992C17.0172 4.48078 19.0346 3.3125 21.2969 3.3125C24.3911 3.3125 27.5 5.9683 27.5 9.96875C27.5 14.4341 24.2587 18.3625 20.9785 21.1904C19.3426 22.6006 17.7059 23.7294 16.478 24.5057L16.478 24.5057Z" fill="white" stroke="#303030" stroke-width="3"/>
</svg>
